<?xml version="1.0" standalone="no"?>
<!DOCTYPE svg PUBLIC "-//W3C//DTD SVG 20010904//EN"
 "http://www.w3.org/TR/2001/REC-SVG-20010904/DTD/svg10.dtd">
<svg version="1.0" xmlns="http://www.w3.org/2000/svg"
 width="443.000000pt" height="443.000000pt" viewBox="0 0 443.000000 443.000000"
 preserveAspectRatio="xMidYMid meet">
<metadata>
Created by potrace 1.11, written by Peter Selinger 2001-2013
</metadata>
<g transform="translate(0.000000,443.000000) scale(0.100000,-0.100000)"
fill="#000000" stroke="none">
<path d="M2605 3546 c-77 -29 -211 -83 -297 -119 -201 -85 -625 -253 -661
-262 -21 -6 -27 -13 -27 -35 0 -27 -6 -31 -127 -78 -187 -73 -173 -71 -173
-23 0 46 0 46 -81 31 -84 -17 -302 -14 -394 5 -176 36 -353 113 -559 243 -54
34 -100 61 -102 59 -2 -2 -3 -420 -2 -930 l3 -926 100 65 c163 105 372 202
471 217 17 3 38 -1 49 -9 14 -10 15 -14 4 -15 -8 0 -1 -5 15 -11 21 -8 25 -13
15 -19 -11 -7 -10 -9 4 -9 10 0 17 -8 17 -20 0 -11 7 -20 15 -20 8 0 15 -7 15
-15 0 -8 7 -15 15 -15 8 0 15 -7 15 -15 0 -8 7 -15 15 -15 8 0 15 -6 15 -14 0
-7 9 -16 21 -19 12 -3 18 -10 14 -16 -10 -18 137 -14 161 4 10 8 42 15 69 16
28 1 42 3 32 6 -9 2 -14 9 -11 14 3 6 -4 13 -15 16 -19 5 -20 8 -8 22 8 9 35
52 60 96 61 107 98 148 236 264 64 54 145 131 180 170 37 42 68 68 73 63 5 -5
7 -53 6 -108 -2 -76 -6 -98 -16 -96 -8 1 -11 -2 -8 -7 4 -5 -7 -17 -23 -27
-19 -11 -31 -28 -35 -48 -3 -17 -17 -44 -31 -61 -21 -25 -26 -28 -35 -15 -8
12 -9 8 -6 -15 2 -16 5 -55 5 -86 l1 -56 138 -53 c267 -103 453 -188 481 -219
15 -16 39 -33 55 -37 19 -5 24 -9 15 -15 -8 -4 15 -8 52 -8 55 0 93 -10 230
-59 l164 -59 5 186 c3 102 3 192 1 200 -7 22 -31 -18 -31 -51 0 -16 -7 -31
-15 -34 -9 -4 -15 -19 -15 -40 0 -39 -1 -39 -42 -18 -30 15 -31 15 -65 -18
-25 -24 -36 -29 -42 -20 -4 7 -15 10 -26 6 -16 -7 -16 -5 -2 17 9 13 32 62 53
109 51 119 85 166 227 317 77 82 159 184 218 269 160 234 185 256 514 453 121
73 231 144 245 158 14 14 18 22 10 18 -11 -6 -11 -4 2 10 23 24 84 29 93 7 5
-13 8 -14 14 -3 5 8 7 -6 4 -32 -5 -45 -4 -47 31 -68 45 -26 44 -50 -2 -64
-29 -8 -32 -12 -32 -51 0 -37 -2 -41 -22 -37 -19 4 -25 -2 -36 -34 -8 -21 -16
-53 -19 -72 -5 -30 -8 -32 -33 -28 -21 5 -33 0 -56 -24 -28 -30 -28 -30 -44
-9 -16 21 -16 20 -42 -19 -14 -22 -29 -54 -33 -71 -5 -24 -11 -30 -25 -25 -20
6 -51 -30 -67 -80 -7 -22 -17 -31 -39 -35 -19 -3 -30 -12 -32 -25 -5 -25 -18
-40 -37 -40 -8 0 -37 -18 -65 -40 -45 -36 -50 -43 -50 -80 0 -23 -6 -50 -14
-61 -14 -19 -15 -19 -44 3 -25 18 -38 21 -90 16 -54 -5 -61 -4 -64 13 -2 16
-10 12 -48 -25 -42 -41 -43 -44 -18 -39 29 5 38 -10 38 -64 l0 -28 99 0 c101
0 131 10 131 45 0 7 7 16 16 19 8 3 12 10 9 16 -3 6 0 13 9 16 8 3 18 20 22
37 6 28 8 30 15 12 6 -17 8 -17 8 -2 1 10 9 17 21 17 11 0 20 7 20 15 0 8 7
15 15 15 8 0 15 7 15 15 0 8 7 15 15 15 8 0 15 7 15 15 0 8 7 15 15 15 8 0 15
7 15 15 0 8 7 15 15 15 8 0 15 9 15 20 0 11 7 20 15 20 8 0 15 7 15 15 0 8 7
15 15 15 8 0 15 7 15 15 0 8 7 15 15 15 8 0 15 7 15 15 0 8 7 15 15 15 8 0 15
7 15 15 0 8 9 15 20 15 11 0 20 6 20 14 0 9 12 16 28 18 15 2 26 8 25 16 -2 6
6 12 17 12 11 0 20 7 20 15 0 8 7 15 15 15 8 0 15 9 15 20 0 13 5 18 15 14 10
-4 15 0 15 15 0 12 6 21 15 21 8 0 15 7 15 15 0 8 7 15 15 15 10 0 15 10 15
30 0 19 5 30 14 30 8 0 17 12 21 27 3 15 11 31 17 34 5 4 12 28 14 55 4 63 5
65 15 29 l8 -30 -3 34 c-2 26 1 35 16 39 10 2 18 11 18 18 0 8 9 14 20 14 11
0 20 7 20 15 0 8 7 15 15 15 10 0 15 11 16 33 0 25 2 28 8 13 7 -18 8 -18 14
5 12 42 8 56 -8 35 -19 -25 -19 -16 0 20 22 42 19 96 -6 128 -12 15 -58 45
-104 66 -45 22 -140 80 -211 130 -152 107 -246 156 -329 171 -33 6 -68 16 -79
21 -18 9 -192 9 -230 0 -20 -5 -20 -5 0 -13 15 -6 13 -8 -13 -8 -50 -1 -63
-11 -69 -50 -5 -29 -15 -43 -52 -68 -26 -18 -89 -62 -141 -98 -52 -36 -98 -65
-103 -65 -4 0 -8 115 -8 255 0 140 -3 255 -7 255 -5 0 -71 -24 -148 -54z m698
-163 c-7 -2 -19 -2 -25 0 -7 3 -2 5 12 5 14 0 19 -2 13 -5z m-56 -9 c-3 -3
-12 -4 -19 -1 -8 3 -5 6 6 6 11 1 17 -2 13 -5z m-89 -88 c-106 -103 -128 -193
-108 -436 15 -180 9 -342 -15 -418 -9 -30 -18 -52 -20 -50 -1 1 4 35 12 73 15
71 15 93 -3 476 -7 155 4 212 56 291 25 37 111 116 129 118 2 0 -21 -24 -51
-54z m-1143 -14 c-6 -4 -30 -24 -55 -44 -92 -73 -129 -189 -130 -403 0 -144
-10 -230 -36 -311 -23 -74 -28 -62 -8 22 10 43 19 149 24 279 9 234 20 287 73
357 18 24 54 58 81 76 44 29 74 44 51 24z m1659 -71 c-57 -26 -71 -67 -79
-227 -6 -129 -20 -230 -33 -238 -13 -8 3 367 17 399 23 56 59 83 111 84 21 0
18 -3 -16 -18z m-1220 -90 c-17 -4 -36 -11 -44 -16 -17 -11 -47 -81 -55 -133
-4 -26 -11 -40 -18 -35 -6 4 -8 0 -4 -10 3 -9 0 -18 -8 -21 -12 -4 -13 4 -8
42 16 119 60 183 127 181 40 -1 40 -1 10 -8z m-859 -87 c-11 -91 -32 -149
-125 -344 -127 -266 -156 -377 -168 -625 -7 -164 -19 -141 -21 41 -1 135 16
253 52 359 26 74 45 115 144 310 66 129 101 223 105 280 2 19 7 35 12 35 4 0
5 -25 1 -56z m1175 -104 c-7 -41 -37 -145 -67 -230 -122 -343 -137 -423 -131
-690 4 -167 4 -180 -8 -135 -24 89 -35 252 -24 363 13 137 38 231 115 426 70
175 105 296 105 356 0 20 3 40 8 44 13 14 14 -57 2 -134z m-1655 -138 c-14
-31 -53 -99 -86 -150 -92 -142 -112 -192 -117 -294 -5 -90 -5 -91 74 -348 16
-52 27 -118 30 -170 l4 -85 -19 87 c-10 48 -42 153 -70 235 -96 281 -83 370
89 613 44 63 88 136 98 163 12 35 18 43 20 28 2 -12 -8 -47 -23 -79z m1192
-23 c-4 -33 -32 -104 -81 -207 -136 -285 -138 -362 -16 -633 72 -160 120 -339
91 -339 -6 0 -11 11 -11 23 0 39 -38 143 -105 286 -77 167 -94 217 -101 301
-9 94 15 183 83 310 98 182 122 233 128 272 10 56 19 46 12 -13z m1403 27 c0
-3 -39 -26 -87 -52 -321 -171 -407 -228 -506 -333 -39 -42 -56 -58 -39 -35 89
116 228 217 487 351 150 77 145 75 145 69z"/>
<path d="M3398 3393 c6 -2 18 -2 25 0 6 3 1 5 -13 5 -14 0 -19 -2 -12 -5z"/>
<path d="M3805 2850 c-3 -5 -1 -10 4 -10 6 0 11 5 11 10 0 6 -2 10 -4 10 -3 0
-8 -4 -11 -10z"/>
<path d="M1576 1887 c-17 -12 -17 -14 1 -28 16 -13 17 -13 4 4 -12 15 -11 17
3 17 9 0 16 5 16 10 0 13 -3 13 -24 -3z"/>
<path d="M1503 1843 c-7 -2 -12 -17 -12 -31 1 -17 3 -21 6 -9 2 9 12 17 21 18
11 0 12 2 4 6 -6 2 -10 9 -6 14 6 10 5 10 -13 2z"/>
<path d="M2906 1812 c-3 -5 1 -9 9 -9 8 0 15 4 15 9 0 4 -4 8 -9 8 -6 0 -12
-4 -15 -8z"/>
<path d="M2876 1791 c-4 -5 -2 -12 3 -15 5 -4 12 -2 15 3 4 5 2 12 -3 15 -5 4
-12 2 -15 -3z"/>
<path d="M1431 1776 c-8 -10 -9 -16 -1 -21 5 -3 10 -5 11 -3 4 18 7 38 4 38
-1 0 -8 -6 -14 -14z"/>
<path d="M2809 1733 c-12 -16 -12 -17 1 -7 8 6 22 14 30 17 13 5 12 6 -1 6 -9
1 -23 -7 -30 -16z"/>
<path d="M1287 1652 c-10 -10 -15 -21 -11 -24 10 -10 44 4 44 19 0 8 5 11 12
7 7 -4 8 -3 4 4 -10 17 -31 15 -49 -6z"/>
<path d="M4376 1515 c-3 -8 -1 -15 4 -15 6 0 10 7 10 15 0 8 -2 15 -4 15 -2 0
-6 -7 -10 -15z"/>
<path d="M955 1513 c-61 -5 -191 -32 -285 -60 -102 -30 -272 -102 -265 -113 2
-4 43 8 90 26 209 83 418 115 636 96 326 -28 609 -121 1099 -357 402 -195 521
-228 810 -229 182 -1 252 8 421 50 244 60 602 216 696 301 13 13 27 23 31 23
12 0 152 144 152 157 0 7 4 13 9 13 11 0 36 59 28 66 -7 8 -56 -47 -57 -63 0
-11 -12 -22 -110 -100 -179 -144 -469 -273 -740 -332 -321 -68 -652 -49 -954
56 -56 19 -185 75 -288 124 -316 151 -551 235 -830 298 -127 28 -318 53 -378
49 -14 -1 -43 -3 -65 -5z"/>
<path d="M915 1364 c-11 -2 -47 -6 -80 -11 -52 -6 -39 -8 100 -14 321 -13 524
-78 1035 -327 268 -130 426 -197 565 -237 409 -118 887 -76 1330 117 91 40
258 129 252 135 -2 1 -95 -28 -208 -67 -378 -128 -577 -170 -814 -170 -219 0
-420 31 -628 97 -62 19 -269 102 -461 185 -358 153 -584 235 -716 262 -149 30
-299 42 -375 30z"/>
</g>
</svg>
